<svg id="visual" viewBox="0 0 960 540" width="960" height="540" xmlns="http://www.w3.org/2000/svg" xmlns:xlink="http://www.w3.org/1999/xlink" version="1.1"><path d="M748 540L752.8 531.8C757.7 523.7 767.3 507.3 768.8 491C770.3 474.7 763.7 458.3 773.2 442C782.7 425.7 808.3 409.3 824.3 393C840.3 376.7 846.7 360.3 835.5 344C824.3 327.7 795.7 311.3 799 294.8C802.3 278.3 837.7 261.7 844 245.2C850.3 228.7 827.7 212.3 819.7 196C811.7 179.7 818.3 163.3 828 147C837.7 130.7 850.3 114.3 831 98C811.7 81.7 760.3 65.3 750.7 49C741 32.7 773 16.3 789 8.2L805 0L960 0L960 8.2C960 16.3 960 32.7 960 49C960 65.3 960 81.7 960 98C960 114.3 960 130.7 960 147C960 163.3 960 179.7 960 196C960 212.3 960 228.7 960 245.2C960 261.7 960 278.3 960 294.8C960 311.3 960 327.7 960 344C960 360.3 960 376.7 960 393C960 409.3 960 425.7 960 442C960 458.3 960 474.7 960 491C960 507.3 960 523.7 960 531.8L960 540Z" fill="#0066ff"></path><path d="M671 540L661.3 531.8C651.7 523.7 632.3 507.3 621.2 491C610 474.7 607 458.3 616.7 442C626.3 425.7 648.7 409.3 674.2 393C699.7 376.7 728.3 360.3 717.2 344C706 327.7 655 311.3 656.7 294.8C658.3 278.3 712.7 261.7 727 245.2C741.3 228.7 715.7 212.3 707.7 196C699.7 179.7 709.3 163.3 711 147C712.7 130.7 706.3 114.3 676 98C645.7 81.7 591.3 65.3 594.5 49C597.7 32.7 658.3 16.3 688.7 8.2L719 0L806 0L790 8.2C774 16.3 742 32.7 751.7 49C761.3 65.3 812.7 81.7 832 98C851.3 114.3 838.7 130.7 829 147C819.3 163.3 812.7 179.7 820.7 196C828.7 212.3 851.3 228.7 845 245.2C838.7 261.7 803.3 278.3 800 294.8C796.7 311.3 825.3 327.7 836.5 344C847.7 360.3 841.3 376.7 825.3 393C809.3 409.3 783.7 425.7 774.2 442C764.7 458.3 771.3 474.7 769.8 491C768.3 507.3 758.7 523.7 753.8 531.8L749 540Z" fill="#6963ff"></path><path d="M421 540L389 531.8C357 523.7 293 507.3 267.5 491C242 474.7 255 458.3 259.8 442C264.7 425.7 261.3 409.3 275.7 393C290 376.7 322 360.3 350.8 344C379.7 327.7 405.3 311.3 432.5 294.8C459.7 278.3 488.3 261.7 501.2 245.2C514 228.7 511 212.3 491.8 196C472.7 179.7 437.3 163.3 418.2 147C399 130.7 396 114.3 375.2 98C354.3 81.7 315.7 65.3 323.7 49C331.7 32.7 386.3 16.3 413.7 8.2L441 0L720 0L689.7 8.2C659.3 16.3 598.7 32.7 595.5 49C592.3 65.3 646.7 81.7 677 98C707.3 114.3 713.7 130.7 712 147C710.3 163.3 700.7 179.7 708.7 196C716.7 212.3 742.3 228.7 728 245.2C713.7 261.7 659.3 278.3 657.7 294.8C656 311.3 707 327.7 718.2 344C729.3 360.3 700.7 376.7 675.2 393C649.7 409.3 627.3 425.7 617.7 442C608 458.3 611 474.7 622.2 491C633.3 507.3 652.7 523.7 662.3 531.8L672 540Z" fill="#985fff"></path><path d="M306 540L277.2 531.8C248.3 523.7 190.7 507.3 165.2 491C139.7 474.7 146.3 458.3 149.7 442C153 425.7 153 409.3 162.5 393C172 376.7 191 360.3 226.2 344C261.3 327.7 312.7 311.3 344.7 294.8C376.7 278.3 389.3 261.7 390.8 245.2C392.3 228.7 382.7 212.3 360.3 196C338 179.7 303 163.3 290.3 147C277.7 130.7 287.3 114.3 276.2 98C265 81.7 233 65.3 237.7 49C242.3 32.7 283.7 16.3 304.3 8.2L325 0L442 0L414.7 8.2C387.3 16.3 332.7 32.7 324.7 49C316.7 65.3 355.3 81.7 376.2 98C397 114.3 400 130.7 419.2 147C438.3 163.3 473.7 179.7 492.8 196C512 212.3 515 228.7 502.2 245.2C489.3 261.7 460.7 278.3 433.5 294.8C406.3 311.3 380.7 327.7 351.8 344C323 360.3 291 376.7 276.7 393C262.3 409.3 265.7 425.7 260.8 442C256 458.3 243 474.7 268.5 491C294 507.3 358 523.7 390 531.8L422 540Z" fill="#bf59ff"></path><path d="M0 540L0 531.8C0 523.7 0 507.3 0 491C0 474.7 0 458.3 0 442C0 425.7 0 409.3 0 393C0 376.7 0 360.3 0 344C0 327.7 0 311.3 0 294.8C0 278.3 0 261.7 0 245.2C0 228.7 0 212.3 0 196C0 179.7 0 163.3 0 147C0 130.7 0 114.3 0 98C0 81.7 0 65.3 0 49C0 32.7 0 16.3 0 8.2L0 0L326 0L305.3 8.2C284.7 16.3 243.3 32.7 238.7 49C234 65.3 266 81.7 277.2 98C288.3 114.3 278.7 130.7 291.3 147C304 163.3 339 179.7 361.3 196C383.7 212.3 393.3 228.7 391.8 245.2C390.3 261.7 377.7 278.3 345.7 294.8C313.7 311.3 262.3 327.7 227.2 344C192 360.3 173 376.7 163.5 393C154 409.3 154 425.7 150.7 442C147.3 458.3 140.7 474.7 166.2 491C191.7 507.3 249.3 523.7 278.2 531.8L307 540Z" fill="#e44fff"></path></svg>