<svg id="visual" viewBox="0 0 960 540" width="960" height="540" xmlns="http://www.w3.org/2000/svg" xmlns:xlink="http://www.w3.org/1999/xlink" version="1.1"><g stroke-width="2" stroke-linejoin="bevel"><path d="M494 286L488 356L591 356Z" fill="#0d0d0d" stroke="#9c9c9c"></path><path d="M591 356L567 256L494 286Z" fill="#0c0c0c" stroke="#9c9c9c"></path><path d="M488 356L569 458L591 356Z" fill="#050505" stroke="#9c9c9c"></path><path d="M682 452L675 343L591 356Z" fill="#000000" stroke="#9c9c9c"></path><path d="M591 356L676 276L567 256Z" fill="#070707" stroke="#9c9c9c"></path><path d="M675 343L676 276L591 356Z" fill="#050505" stroke="#9c9c9c"></path><path d="M494 286L396 361L488 356Z" fill="#0c0c0c" stroke="#9c9c9c"></path><path d="M488 356L464 454L569 458Z" fill="#000000" stroke="#9c9c9c"></path><path d="M396 361L464 454L488 356Z" fill="#040404" stroke="#9c9c9c"></path><path d="M681 182L560 176L567 256Z" fill="#040404" stroke="#9c9c9c"></path><path d="M567 256L474 167L494 286Z" fill="#000000" stroke="#9c9c9c"></path><path d="M494 286L390 272L396 361Z" fill="#040404" stroke="#9c9c9c"></path><path d="M474 167L390 272L494 286Z" fill="#020202" stroke="#9c9c9c"></path><path d="M560 176L474 167L567 256Z" fill="#0b0b0b" stroke="#9c9c9c"></path><path d="M569 458L682 452L591 356Z" fill="#070707" stroke="#9c9c9c"></path><path d="M675 343L773 260L676 276Z" fill="#101010" stroke="#9c9c9c"></path><path d="M278 368L384 442L396 361Z" fill="#040404" stroke="#9c9c9c"></path><path d="M396 361L384 442L464 454Z" fill="#020202" stroke="#9c9c9c"></path><path d="M773 260L681 182L676 276Z" fill="#000000" stroke="#9c9c9c"></path><path d="M676 276L681 182L567 256Z" fill="#000000" stroke="#9c9c9c"></path><path d="M560 176L477 74L474 167Z" fill="#000000" stroke="#9c9c9c"></path><path d="M474 167L383 179L390 272Z" fill="#040404" stroke="#9c9c9c"></path><path d="M390 272L295 269L396 361Z" fill="#050505" stroke="#9c9c9c"></path><path d="M397 540L496 540L464 454Z" fill="#000000" stroke="#9c9c9c"></path><path d="M464 454L496 540L569 458Z" fill="#101010" stroke="#9c9c9c"></path><path d="M569 458L660 540L682 452Z" fill="#101010" stroke="#9c9c9c"></path><path d="M496 540L586 540L569 458Z" fill="#040404" stroke="#9c9c9c"></path><path d="M682 452L768 365L675 343Z" fill="#0b0b0b" stroke="#9c9c9c"></path><path d="M768 365L773 260L675 343Z" fill="#000000" stroke="#9c9c9c"></path><path d="M586 540L660 540L569 458Z" fill="#101010" stroke="#9c9c9c"></path><path d="M682 452L773 445L768 365Z" fill="#101010" stroke="#9c9c9c"></path><path d="M674 95L560 176L681 182Z" fill="#101010" stroke="#9c9c9c"></path><path d="M674 95L584 81L560 176Z" fill="#0c0c0c" stroke="#9c9c9c"></path><path d="M474 167L396 106L383 179Z" fill="#090909" stroke="#9c9c9c"></path><path d="M383 179L295 269L390 272Z" fill="#040404" stroke="#9c9c9c"></path><path d="M384 442L397 540L464 454Z" fill="#090909" stroke="#9c9c9c"></path><path d="M291 452L397 540L384 442Z" fill="#0b0b0b" stroke="#9c9c9c"></path><path d="M584 81L477 74L560 176Z" fill="#040404" stroke="#9c9c9c"></path><path d="M383 179L289 180L295 269Z" fill="#090909" stroke="#9c9c9c"></path><path d="M477 74L396 106L474 167Z" fill="#0c0c0c" stroke="#9c9c9c"></path><path d="M780 540L773 445L682 452Z" fill="#0b0b0b" stroke="#9c9c9c"></path><path d="M768 365L868 266L773 260Z" fill="#050505" stroke="#9c9c9c"></path><path d="M773 260L760 182L681 182Z" fill="#0c0c0c" stroke="#9c9c9c"></path><path d="M295 269L278 368L396 361Z" fill="#0c0c0c" stroke="#9c9c9c"></path><path d="M755 99L674 95L681 182Z" fill="#101010" stroke="#9c9c9c"></path><path d="M278 368L291 452L384 442Z" fill="#0c0c0c" stroke="#9c9c9c"></path><path d="M295 82L289 180L383 179Z" fill="#000000" stroke="#9c9c9c"></path><path d="M295 269L194 286L278 368Z" fill="#090909" stroke="#9c9c9c"></path><path d="M874 190L755 99L760 182Z" fill="#050505" stroke="#9c9c9c"></path><path d="M760 182L755 99L681 182Z" fill="#020202" stroke="#9c9c9c"></path><path d="M673 0L561 0L584 81Z" fill="#040404" stroke="#9c9c9c"></path><path d="M660 540L780 540L682 452Z" fill="#090909" stroke="#9c9c9c"></path><path d="M878 355L868 266L768 365Z" fill="#090909" stroke="#9c9c9c"></path><path d="M673 0L584 81L674 95Z" fill="#090909" stroke="#9c9c9c"></path><path d="M584 81L561 0L477 74Z" fill="#050505" stroke="#9c9c9c"></path><path d="M477 74L379 0L396 106Z" fill="#0f0f0f" stroke="#9c9c9c"></path><path d="M561 0L476 0L477 74Z" fill="#090909" stroke="#9c9c9c"></path><path d="M396 106L295 82L383 179Z" fill="#040404" stroke="#9c9c9c"></path><path d="M861 433L768 365L773 445Z" fill="#000000" stroke="#9c9c9c"></path><path d="M773 260L874 190L760 182Z" fill="#000000" stroke="#9c9c9c"></path><path d="M865 540L861 433L773 445Z" fill="#000000" stroke="#9c9c9c"></path><path d="M861 433L878 355L768 365Z" fill="#0d0d0d" stroke="#9c9c9c"></path><path d="M291 452L275 540L397 540Z" fill="#050505" stroke="#9c9c9c"></path><path d="M200 540L275 540L291 452Z" fill="#070707" stroke="#9c9c9c"></path><path d="M379 0L295 82L396 106Z" fill="#090909" stroke="#9c9c9c"></path><path d="M205 191L295 269L289 180Z" fill="#040404" stroke="#9c9c9c"></path><path d="M205 191L194 286L295 269Z" fill="#0c0c0c" stroke="#9c9c9c"></path><path d="M278 368L178 461L291 452Z" fill="#0b0b0b" stroke="#9c9c9c"></path><path d="M752 0L673 0L674 95Z" fill="#000000" stroke="#9c9c9c"></path><path d="M295 82L205 191L289 180Z" fill="#101010" stroke="#9c9c9c"></path><path d="M868 266L874 190L773 260Z" fill="#020202" stroke="#9c9c9c"></path><path d="M755 99L752 0L674 95Z" fill="#000000" stroke="#9c9c9c"></path><path d="M960 273L874 190L868 266Z" fill="#0f0f0f" stroke="#9c9c9c"></path><path d="M476 0L379 0L477 74Z" fill="#000000" stroke="#9c9c9c"></path><path d="M97 349L176 364L194 286Z" fill="#050505" stroke="#9c9c9c"></path><path d="M194 286L176 364L278 368Z" fill="#050505" stroke="#9c9c9c"></path><path d="M176 364L178 461L278 368Z" fill="#020202" stroke="#9c9c9c"></path><path d="M875 82L752 0L755 99Z" fill="#000000" stroke="#9c9c9c"></path><path d="M780 540L865 540L773 445Z" fill="#050505" stroke="#9c9c9c"></path><path d="M960 448L960 349L878 355Z" fill="#0d0d0d" stroke="#9c9c9c"></path><path d="M178 461L200 540L291 452Z" fill="#0b0b0b" stroke="#9c9c9c"></path><path d="M379 0L301 0L295 82Z" fill="#0f0f0f" stroke="#9c9c9c"></path><path d="M295 82L190 74L205 191Z" fill="#0c0c0c" stroke="#9c9c9c"></path><path d="M960 185L875 82L874 190Z" fill="#0d0d0d" stroke="#9c9c9c"></path><path d="M874 190L875 82L755 99Z" fill="#000000" stroke="#9c9c9c"></path><path d="M960 448L878 355L861 433Z" fill="#050505" stroke="#9c9c9c"></path><path d="M878 355L960 273L868 266Z" fill="#0b0b0b" stroke="#9c9c9c"></path><path d="M960 349L960 273L878 355Z" fill="#040404" stroke="#9c9c9c"></path><path d="M301 0L190 74L295 82Z" fill="#020202" stroke="#9c9c9c"></path><path d="M205 191L109 253L194 286Z" fill="#000000" stroke="#9c9c9c"></path><path d="M91 173L109 253L205 191Z" fill="#050505" stroke="#9c9c9c"></path><path d="M176 364L81 450L178 461Z" fill="#050505" stroke="#9c9c9c"></path><path d="M178 461L102 540L200 540Z" fill="#0b0b0b" stroke="#9c9c9c"></path><path d="M865 540L960 448L861 433Z" fill="#0c0c0c" stroke="#9c9c9c"></path><path d="M109 253L97 349L194 286Z" fill="#0d0d0d" stroke="#9c9c9c"></path><path d="M960 273L960 185L874 190Z" fill="#0d0d0d" stroke="#9c9c9c"></path><path d="M960 0L876 0L875 82Z" fill="#0d0d0d" stroke="#9c9c9c"></path><path d="M875 82L876 0L752 0Z" fill="#020202" stroke="#9c9c9c"></path><path d="M865 540L960 540L960 448Z" fill="#0b0b0b" stroke="#9c9c9c"></path><path d="M190 74L91 173L205 191Z" fill="#000000" stroke="#9c9c9c"></path><path d="M0 256L0 357L97 349Z" fill="#020202" stroke="#9c9c9c"></path><path d="M0 357L81 450L97 349Z" fill="#040404" stroke="#9c9c9c"></path><path d="M97 349L81 450L176 364Z" fill="#020202" stroke="#9c9c9c"></path><path d="M301 0L181 0L190 74Z" fill="#0f0f0f" stroke="#9c9c9c"></path><path d="M190 74L84 106L91 173Z" fill="#0d0d0d" stroke="#9c9c9c"></path><path d="M960 185L960 84L875 82Z" fill="#040404" stroke="#9c9c9c"></path><path d="M81 450L102 540L178 461Z" fill="#090909" stroke="#9c9c9c"></path><path d="M103 0L84 106L190 74Z" fill="#000000" stroke="#9c9c9c"></path><path d="M0 256L97 349L109 253Z" fill="#0d0d0d" stroke="#9c9c9c"></path><path d="M960 84L960 0L875 82Z" fill="#000000" stroke="#9c9c9c"></path><path d="M0 256L109 253L91 173Z" fill="#070707" stroke="#9c9c9c"></path><path d="M81 450L0 540L102 540Z" fill="#020202" stroke="#9c9c9c"></path><path d="M0 163L0 256L91 173Z" fill="#0f0f0f" stroke="#9c9c9c"></path><path d="M181 0L103 0L190 74Z" fill="#090909" stroke="#9c9c9c"></path><path d="M84 106L0 163L91 173Z" fill="#040404" stroke="#9c9c9c"></path><path d="M0 357L0 436L81 450Z" fill="#070707" stroke="#9c9c9c"></path><path d="M0 84L0 163L84 106Z" fill="#000000" stroke="#9c9c9c"></path><path d="M0 436L0 540L81 450Z" fill="#020202" stroke="#9c9c9c"></path><path d="M103 0L0 84L84 106Z" fill="#020202" stroke="#9c9c9c"></path><path d="M103 0L0 0L0 84Z" fill="#000000" stroke="#9c9c9c"></path></g></svg>